IKResults
version=1
nRows=11
nColumns=40
inDegrees=yes

Units are S.I. units (second, meters, Newtons, ...)
Angles are in degrees.

endheader
time	pelvis_tilt	pelvis_list	pelvis_rotation	pelvis_tx	pelvis_ty	pelvis_tz	hip_flexion_r	hip_adduction_r	hip_rotation_r	knee_angle_r	knee_angle_r_beta	ankle_angle_r	subtalar_angle_r	mtp_angle_r	hip_flexion_l	hip_adduction_l	hip_rotation_l	knee_angle_l	knee_angle_l_beta	ankle_angle_l	subtalar_angle_l	mtp_angle_l	lumbar_extension	lumbar_bending	lumbar_rotation	arm_flex_r	arm_add_r	arm_rot_r	elbow_flex_r	pro_sup_r	wrist_flex_r	wrist_dev_r	arm_flex_l	arm_add_l	arm_rot_l	elbow_flex_l	pro_sup_l	wrist_flex_l	wrist_dev_l
      1.67000000	     18.93671979	     -2.33090948	      0.77221164	     -0.14713767	      0.95830178	     -1.48398708	     -0.35836614	     -1.47959355	    -17.22074051	    -26.61327405	     -0.46448926	      5.40451763	     -2.65899657	      8.79609490	    -22.56332151	      0.33574932	     18.53050471	     -9.87150066	     -0.17229019	      8.73216021	     -6.70728658	     -6.10178376	    -25.90326828	     -0.04809629	     -3.08516181	     -0.68240368	     -9.14395793	      2.40513740	     22.07750334	     89.95437384	      0.00000000	      0.00000000	     14.41776671	     13.70191145	     -1.59414626	     34.03303990	     89.95437384	      0.00000000	      0.00000000
      1.68000000	     18.72636096	     -2.60504821	      0.62291422	     -0.14201588	      0.95764678	     -1.48363741	      0.07531260	     -1.09893350	    -17.44406443	    -24.98837780	     -0.43612947	      4.77252327	     -0.69147842	      7.83558682	    -22.61390463	      0.57394372	     18.64314934	    -10.05923301	     -0.17556674	      9.24419454	     -6.43159901	     -6.09017767	    -25.72271884	      0.20304455	     -2.90472037	     -0.74438718	     -9.16182419	      2.31857868	     22.00029311	     89.95437384	      0.00000000	      0.00000000	     14.40764546	     13.47185689	     -0.83007874	     34.85172139	     89.95437384	      0.00000000	      0.00000000
      1.69000000	     18.65444257	     -2.62504889	      0.83072347	     -0.13650710	      0.95703618	     -1.48400749	      0.35069475	     -1.29738348	    -19.36715867	    -23.60499795	     -0.41198493	      4.11910246	      2.41967754	      4.60781500	    -22.81172606	      0.65627242	     18.34114679	    -10.17958767	     -0.17766732	      9.43533096	     -6.39613518	     -6.12934328	    -25.65367771	      0.35824333	     -3.12382146	     -0.94143536	     -9.18610817	      2.26628591	     22.10860993	     89.95437384	      0.00000000	      0.00000000	     14.30375599	     13.24319176	     -0.10868900	     35.76644005	     89.95437384	      0.00000000	      0.00000000
      1.70000000	     18.48343696	     -2.72986016	      0.76735551	     -0.13107052	      0.95627560	     -1.48392890	      0.68119276	     -1.24666753	    -20.44848519	    -21.98266764	     -0.38366993	      2.43012312	      3.77186308	     -8.73926251	    -22.95514329	      0.67523991	     18.09549567	    -10.23726866	     -0.17867404	      9.79432343	     -5.77193581	     -6.91430694	    -25.47670003	      0.49985061	     -3.09010438	     -1.08589433	     -9.18699470	      1.98942006	     22.09790916	     89.95437384	      0.00000000	      0.00000000	     14.18116067	     12.95763450	      0.64270776	     36.61282158	     89.95437384	      0.00000000	      0.00000000
      1.71000000	     18.25134473	     -2.97908178	      0.65814630	     -0.12584307	      0.95542650	     -1.48351599	      1.04484456	     -0.80422430	    -20.65709718	    -20.44589635	     -0.35684821	      2.56171701	      5.21192759	     -8.90236683	    -22.96431668	      0.89810044	     18.09894641	    -10.45945294	     -0.18255189	     10.26612730	     -5.65289046	     -6.91088329	    -25.28216945	      0.75885852	     -2.91737640	     -1.22602278	     -9.20793427	      1.73230547	     22.11003705	     89.95437384	      0.00000000	      0.00000000	     14.08054669	     12.64419300	      1.33595689	     37.47914908	     89.95437384	      0.00000000	      0.00000000
      1.72000000	     18.23609648	     -3.27377135	      0.70360866	     -0.12025142	      0.95483929	     -1.48324434	      1.05250930	     -0.37616715	    -21.45823064	    -18.90095937	     -0.32988397	      2.93156470	      6.85909864	     -9.24862437	    -23.24278425	      1.24690418	     18.17093911	    -10.66984674	     -0.18622396	     10.66499416	     -5.60835831	     -6.93955545	    -25.27774677	      1.12372123	     -2.85688065	     -1.41874606	     -9.23151793	      1.46669200	     22.19217480	     89.95437384	      0.00000000	      0.00000000	     13.92838061	     12.30253565	      2.05002542	     38.38143098	     89.95437384	      0.00000000	      0.00000000
      1.73000000	     18.25650853	     -3.48996183	      0.77850674	     -0.11457639	      0.95425974	     -1.48307276	      1.09519549	     -0.08250647	    -22.41624258	    -17.64424969	     -0.30795025	      3.25706978	      8.22716674	     -9.62917363	    -23.57127842	      1.52260236	     18.24280788	    -10.85595154	     -0.18947210	     10.97047693	     -5.62346048	     -6.94893429	    -25.30908970	      1.42502216	     -2.87626991	     -1.52699219	     -9.21498716	      1.12744328	     22.10579169	     89.95437384	      0.00000000	      0.00000000	     13.75160935	     11.99569645	      2.65139343	     39.32481833	     89.95437384	      0.00000000	      0.00000000
      1.74000000	     18.21424739	     -3.65085824	      0.80810542	     -0.10889683	      0.95349993	     -1.48285591	      1.26204800	      0.14302286	    -23.24097362	    -16.61348264	     -0.28995997	      3.56915691	      9.01207730	     -9.88073728	    -23.90101151	      1.70180483	     18.16784072	    -10.92164320	     -0.19061863	     11.30742129	     -5.74663547	     -6.96865704	    -25.28576880	      1.66151400	     -2.87369923	     -1.77193591	     -9.25718906	      0.87768186	     22.24283123	     89.95437384	      0.00000000	      0.00000000	     13.52291506	     11.72747809	      3.09329674	     40.37818327	     89.95437384	      0.00000000	      0.00000000
      1.75000000	     18.34405979	     -3.88704811	      1.00517105	     -0.10307568	      0.95305129	     -1.48274409	      1.19143863	      0.45359201	    -24.48917412	    -15.62589641	     -0.27272334	      3.55461790	      9.53287345	    -10.21938466	    -24.37983231	      2.05252308	     18.12836919	    -11.05291343	     -0.19290973	     11.57403262	     -5.80650386	     -6.98462692	    -25.43259792	      2.02481609	     -3.00773453	     -1.86273700	     -9.25704071	      0.67593677	     22.10958847	     89.95437384	      0.00000000	      0.00000000	     13.31850155	     11.46217523	      3.52320878	     41.35356323	     89.95437384	      0.00000000	      0.00000000
      1.76000000	     18.13610416	     -3.81441491	      0.80848508	     -0.09777592	      0.95202716	     -1.48237464	      1.77386177	      0.37264523	    -25.02847726	    -15.24871850	     -0.26614034	      3.75817008	      9.26570012	    -10.14829960	    -24.47974620	      1.90569659	     18.16073901	    -11.17583467	     -0.19505511	     11.69039495	     -5.75202795	     -6.93745421	    -25.29494392	      1.94360377	     -2.73270349	     -2.03982520	     -9.32848867	      0.66283648	     22.02766292	     89.95437384	      0.00000000	      0.00000000	     13.44135018	     11.14570904	      3.54781311	     41.95545037	     89.95437384	      0.00000000	      0.00000000
      1.77000000	     17.95707301	     -3.79051477	      0.65289922	     -0.09198783	      0.95104072	     -1.48194802	      2.19076143	      0.36151111	    -25.66362622	    -14.81269581	     -0.25853031	      3.99760848	      9.02670798	    -10.09886413	    -24.66474694	      1.82434220	     18.22161299	    -11.23260295	     -0.19604591	     11.91224159	     -5.70593477	     -6.90994617	    -25.12410016	      1.92101757	     -2.55602394	     -2.23393430	     -9.39010542	      0.60051999	     21.90987605	     89.95437384	      0.00000000	      0.00000000	     13.39282190	     10.86095816	      3.61533703	     42.62395183	     89.95437384	      0.00000000	      0.00000000
